<svg xmlns="http://www.w3.org/2000/svg" width="55.468" height="32.5" viewBox="0 0 55.468 32.5">
  <defs>
    <style>
      .cls-1 {
        fill: #2b4f5f;
        fill-rule: evenodd;
      }
    </style>
  </defs>
  <path id="Bitter" class="cls-1" d="M129.425,52.917l-3.8.138L114.437,82.892l0.963-.825-4.217.963V85h11.275V83.029l-4.675-.871,0.229,0.5,2.613-7.242-0.642.55h14.025l-0.687-.55,2.429,7.333,0.367-.642-4.767.917V85h11.917V83.029l-4.309-.963,1.054,0.917Zm-1.7,2.337-0.871-.046,6,18.654,0.413-.642H120.762l0.367,0.6Zm35.292,11.963q0-3.575-2.085-5.2a9.136,9.136,0,0,0-5.752-1.627,22.732,22.732,0,0,0-4.217.435,38.18,38.18,0,0,0-4.9,1.306l0.366,5.683h2.43l0.458-4.171-0.55.6a19.1,19.1,0,0,1,2.956-.8,14.932,14.932,0,0,1,2.636-.252,5.668,5.668,0,0,1,3.666,1.077,4.379,4.379,0,0,1,1.329,3.6v4.4l0.413-.458h-6a16.56,16.56,0,0,0-4.675.6,6.119,6.119,0,0,0-3.163,2.04,6.541,6.541,0,0,0-1.146,4.148,6.659,6.659,0,0,0,1.834,5.133,6.366,6.366,0,0,0,4.491,1.7,10.452,10.452,0,0,0,4.538-1.123A14.4,14.4,0,0,0,160,80.967l-0.321-.138,0.55,4.4,6.417-.275V82.938l-4.217-.825,0.6,0.825V67.217Zm-13.246,7.952q1.282-.985,4.538-0.986h5.454l-0.413-.413v6.142l0.275-.962a16.693,16.693,0,0,1-3.781,2.681,7.975,7.975,0,0,1-3.552.985,3.736,3.736,0,0,1-2.727-1.054,4.444,4.444,0,0,1-1.077-3.3A3.653,3.653,0,0,1,149.775,75.169Z" transform="translate(-111.188 -52.906)"/>
</svg>
