<svg xmlns="http://www.w3.org/2000/svg" width="51.531" height="33.937" viewBox="0 0 51.531 33.937">
  <defs>
    <style>
      .cls-1 {
        fill: #2b4f5f;
        fill-rule: evenodd;
      }
    </style>
  </defs>
  <path id="Kufam" class="cls-1" d="M117.692,292l3.666-22a14.118,14.118,0,0,1,1.352-4.217,5.658,5.658,0,0,1,2.659-2.475,11.482,11.482,0,0,1,4.789-.825,17.4,17.4,0,0,1,1.857.092,4.638,4.638,0,0,1,1.443.367l-0.733-1.329a9.784,9.784,0,0,0-.16,1.535q-0.024.8-.023,1.719V292h4.4V264.958q0-1.374.068-2.75t0.207-2.291l-0.092-.55a26.785,26.785,0,0,0-3.46-.573q-1.674-.16-3.323-0.161a19.993,19.993,0,0,0-5.821.734,9.494,9.494,0,0,0-3.9,2.2,10.772,10.772,0,0,0-2.406,3.575A21.474,21.474,0,0,0,116.867,270L113.2,292h4.492Zm16.683-10.083v-3.85H117.783v3.85h16.592Zm23.26,10.4q1.811-.23,3.644-0.642a27.583,27.583,0,0,0,3.345-.962l0.092-.367a13.989,13.989,0,0,1-.252-2.246q-0.069-1.421-.092-2.887t-0.023-2.384v-6.05a14.115,14.115,0,0,0-.825-5.27,6.944,6.944,0,0,0-2.314-3.094,8.956,8.956,0,0,0-3.438-1.49,20.473,20.473,0,0,0-4.239-.412,23.094,23.094,0,0,0-3.827.343,16.874,16.874,0,0,0-3.69,1.032v3.758h0.367a14.533,14.533,0,0,1,2.956-1.008,15.192,15.192,0,0,1,3.644-.459,13.829,13.829,0,0,1,3.964.482,3.942,3.942,0,0,1,2.384,1.925,9.3,9.3,0,0,1,.8,4.377v8.25c0,0.4.007,0.779,0.023,1.146s0.038,0.718.068,1.054,0.069,0.657.115,0.962,0.1,0.581.16,0.825l0.825-1.237a20.863,20.863,0,0,1-3.162.8,20.342,20.342,0,0,1-3.529.3,10.012,10.012,0,0,1-5.042-1.032,3.608,3.608,0,0,1-1.742-3.368,3.549,3.549,0,0,1,1.811-3.438,12.219,12.219,0,0,1,5.523-.962,18.712,18.712,0,0,1,3.437.343,23.878,23.878,0,0,1,3.071.757v-3.3q-1.237-.413-2.956-0.848a17.808,17.808,0,0,0-4.286-.436,16.8,16.8,0,0,0-5.706.871,7.813,7.813,0,0,0-3.712,2.613,7.13,7.13,0,0,0-1.307,4.4,6.849,6.849,0,0,0,2.682,5.935q2.68,1.949,8.043,1.948A25.907,25.907,0,0,0,157.635,292.321Z" transform="translate(-113.188 -258.625)"/>
</svg>
