<svg xmlns="http://www.w3.org/2000/svg" width="57.468" height="32.75" viewBox="0 0 57.468 32.75">
  <defs>
    <style>
      .cls-1 {
        fill: #2b4f5f;
        fill-rule: evenodd;
      }
    </style>
  </defs>
  <path id="Literata" class="cls-1" d="M122.779,499v-2.154l-2.612-.413a1.255,1.255,0,0,1-1.284-.848,3.448,3.448,0,0,1,.229-1.581l1.925-5.591h12.284l2.016,5.775a2.546,2.546,0,0,1,.207,1.65,1.3,1.3,0,0,1-1.123.641l-2.659.321V499H144v-2.292l-1.879-.412a2,2,0,0,1-1.261-.688,10.123,10.123,0,0,1-.756-1.6l-9.579-27.087h-4.858L116,493.958a6.284,6.284,0,0,1-.894,1.857,2.227,2.227,0,0,1-1.215.618l-2.2.367V499h11.092Zm4.4-28.279h0.183L132.45,485.8h-10.5Zm29.149,28.462a7.463,7.463,0,0,0,2.338-1.352,9.869,9.869,0,0,0,1.925-2.268,4.821,4.821,0,0,0,1.306,3.047,4.229,4.229,0,0,0,3.048,1.032,5.507,5.507,0,0,0,2.2-.527,7.057,7.057,0,0,0,2.017-1.307l-0.459-1.741q-0.642.183-1.145,0.275a5.651,5.651,0,0,1-1.009.091,2.132,2.132,0,0,1-1.535-.5,2,2,0,0,1-.527-1.512V483.371a10.11,10.11,0,0,0-.94-4.629,5.936,5.936,0,0,0-2.841-2.727,12.523,12.523,0,0,0-9.121-.069,8.707,8.707,0,0,0-3.209,2.177,4.336,4.336,0,0,0-1.214,2.956,2.254,2.254,0,0,0,.687,1.765,2.78,2.78,0,0,0,1.925.619,2.655,2.655,0,0,0,1.765-.6,1.844,1.844,0,0,0,.71-1.467,1.69,1.69,0,0,0-.114-0.55,6.38,6.38,0,0,0-.39-0.825q-0.274-.5-0.687-1.192a4.066,4.066,0,0,1,1.764-.985,8,8,0,0,1,2.452-.39,6.012,6.012,0,0,1,2.819.573,3.561,3.561,0,0,1,1.6,1.765,7.656,7.656,0,0,1,.527,3.071v3.116a36.5,36.5,0,0,0-7.746,1.032,7.887,7.887,0,0,0-4.147,2.36,6.283,6.283,0,0,0-1.261,4.079,5.941,5.941,0,0,0,1.765,4.492,6.434,6.434,0,0,0,4.652,1.7A8.411,8.411,0,0,0,156.328,499.183Zm-3.8-3.643a3.367,3.367,0,0,1-1.008-2.59,3.617,3.617,0,0,1,.94-2.567,5.865,5.865,0,0,1,2.887-1.512,19.878,19.878,0,0,1,4.881-.5v3.254a4.7,4.7,0,0,1-.664,2.475,4.9,4.9,0,0,1-1.788,1.742,5.035,5.035,0,0,1-2.544.641A3.81,3.81,0,0,1,152.524,495.54Z" transform="translate(-111.688 -466.906)"/>
</svg>
