<svg xmlns="http://www.w3.org/2000/svg" width="52.718" height="33.031" viewBox="0 0 52.718 33.031">
  <defs>
    <style>
      .cls-1 {
        fill: #2b4f5f;
        fill-rule: evenodd;
      }
    </style>
  </defs>
  <path id="Nunito" class="cls-1" d="M116.362,704.625l2.934-6.875h16.821l2.979,6.875a3.1,3.1,0,0,0,.825,1.26,1.963,1.963,0,0,0,1.329.436,1.481,1.481,0,0,0,1.467-.733,2.094,2.094,0,0,0-.138-1.834l-12.65-28.691a2.774,2.774,0,0,0-.939-1.307,2.2,2.2,0,0,0-1.261-.389,2.391,2.391,0,0,0-2.246,1.7l-12.6,28.691a1.971,1.971,0,0,0-.092,1.834,1.585,1.585,0,0,0,1.513.733,2.3,2.3,0,0,0,2.062-1.7h0Zm11.413-26.537,7.012,16.5H120.671l7.012-16.5h0.092Zm31.372,27.179a6.92,6.92,0,0,0,2.682-3.117V704.4a1.643,1.643,0,0,0,1.787,1.925q1.695,0,1.7-1.925V691.975q0-4.445-2.085-6.554t-6.394-2.108a16.922,16.922,0,0,0-3.781.458,17.122,17.122,0,0,0-3.965,1.467,1.588,1.588,0,0,0-.894.939,1.779,1.779,0,0,0,0,1.192,1.4,1.4,0,0,0,.734.825,1.437,1.437,0,0,0,1.306-.161A15.387,15.387,0,0,1,153.6,686.7a13.1,13.1,0,0,1,3.231-.412,4.881,4.881,0,0,1,3.735,1.26,5.93,5.93,0,0,1,1.169,4.1v1.421H160.27a40.034,40.034,0,0,0-7.952.619,7.534,7.534,0,0,0-4.171,2.039,5.6,5.6,0,0,0-1.26,3.85,6.077,6.077,0,0,0,1.054,3.484,7.251,7.251,0,0,0,2.865,2.452,9.138,9.138,0,0,0,4.1.893A7.764,7.764,0,0,0,159.147,705.267Zm-7.195-2.842a3.967,3.967,0,0,1-1.307-3.071,3.124,3.124,0,0,1,.848-2.314,5.441,5.441,0,0,1,2.979-1.192,38.679,38.679,0,0,1,5.844-.344h1.421v1.375A6.885,6.885,0,0,1,160,701.715a5.812,5.812,0,0,1-4.491,1.9A5.065,5.065,0,0,1,151.952,702.425Z" transform="translate(-112.594 -673.375)"/>
</svg>
