<svg xmlns="http://www.w3.org/2000/svg" width="64.156" height="35.594" viewBox="0 0 64.156 35.594">
  <defs>
    <style>
      .cls-1 {
        fill: #2b4f5f;
        fill-rule: evenodd;
      }
    </style>
  </defs>
  <path id="Oldenburg" class="cls-1" d="M128.993,885.428q0.447-1.007.727-1.488a0.762,0.762,0,0,1,.56-0.481,1.007,1.007,0,0,1,.627.671q0.346,0.672.951,1.992l6.109,13.182-4.99,3.849a12.669,12.669,0,0,0-1.13,1.041,5.441,5.441,0,0,1-.862.761,1.481,1.481,0,0,1-.828.235,1.933,1.933,0,0,1-1.164-.649l-0.806-.829q-0.582-.58-5.527-4.386Zm-8.974,27.594q2.283,0,2.283-1.656a1.467,1.467,0,0,0-.985-1.488,9.321,9.321,0,0,0-3.178-.392h-0.671l3.289-7.251q1.1,0.873,2.149,1.634l3.446,2.574a8.04,8.04,0,0,1,1.075,1.007l0.94,1.074a7.077,7.077,0,0,0,.861.851,1.979,1.979,0,0,0,1.309.4,2.676,2.676,0,0,0,1.835-1.219,19.579,19.579,0,0,1,3.066-2.809l4.208-3.267,2.283,4.655a16.656,16.656,0,0,0,1.253,2.215c-0.165.015-.329,0.023-0.493,0.023H142.2q-4.074,0-4.073,1.835a1.52,1.52,0,0,0,.649,1.342,3.11,3.11,0,0,0,1.79.448l4.543-.157,3.38,0.157a1.543,1.543,0,0,0,1.745-1.746q0-.827-1.768-1.879a4.815,4.815,0,0,1-.783-0.605,11.556,11.556,0,0,1-1.365-2.081l-0.828-1.5q-0.4-.74-6.692-13.227l-4.9-10.473a11.238,11.238,0,0,0-1.8-3,2.529,2.529,0,0,0-1.847-.739,2.249,2.249,0,0,0-1.8.839,14.21,14.21,0,0,0-1.69,3.01l-2.775,5.886-7.788,15.666a19.375,19.375,0,0,1-4.834,6.4,2.96,2.96,0,0,0-1.455,2.036q0,1.41,1.746,1.41l3.312-.179Zm47.825-6.109a9.324,9.324,0,0,1-7.229,2.931,5.719,5.719,0,0,1-3.446-.906,2.762,2.762,0,0,1-1.231-2.316,3.231,3.231,0,0,1,1.332-2.518A6.4,6.4,0,0,1,161.41,903a34.733,34.733,0,0,1,6.434.694v3.223Zm3.883,6.423q2.338,0,2.339-1.858a2.142,2.142,0,0,0-1.187-1.768,2.248,2.248,0,0,1-.917-1.466,21.57,21.57,0,0,1-.246-4.084v-5.8a10.169,10.169,0,0,0-.649-3.805q-1.947-4.722-8.616-4.722a12.722,12.722,0,0,0-6.5,1.5q-2.562,1.5-2.562,3.446,0,2.283,2.126,2.283a2.011,2.011,0,0,0,.917-0.2,2.558,2.558,0,0,0,1.276-1.544q0.582-2.015,4.364-2.014a10.25,10.25,0,0,1,2.82.313q2.954,0.828,2.954,4.521V900.6a23.65,23.65,0,0,0-5.673-.672,19.26,19.26,0,0,0-4.8.493q-5.483,1.5-5.483,6.445a5.662,5.662,0,0,0,2.25,4.722,9.617,9.617,0,0,0,6.053,1.746q5.708,0,8.169-2.954Q169.388,913.336,171.727,913.336Z" transform="translate(-109.906 -877.75)"/>
</svg>
