<svg xmlns="http://www.w3.org/2000/svg" width="53.407" height="39.094" viewBox="0 0 53.407 39.094">
  <defs>
    <style>
      .cls-1 {
        fill: #2b4f5f;
        fill-rule: evenodd;
      }
    </style>
  </defs>
  <path id="Pacifico" class="cls-1" d="M679.75,85.229q6.6,0,9.992-7.1a8.706,8.706,0,0,0,2.475,5.248,7.244,7.244,0,0,0,5.179,1.856,9.366,9.366,0,0,0,5.271-1.421,20.8,20.8,0,0,0,4.4-4.125,4.327,4.327,0,0,0,.87-2.842,2.845,2.845,0,0,0-.343-1.513,1.06,1.06,0,0,0-.94-0.55,1.608,1.608,0,0,0-1.237.642,22.187,22.187,0,0,1-3.346,3.369,4.622,4.622,0,0,1-2.8.985,2.5,2.5,0,0,1-2.246-1.123,6.772,6.772,0,0,1-.733-3.6,49.507,49.507,0,0,1,.985-8.181q0.986-5.385,2.177-9.831a3.9,3.9,0,0,0,.138-0.917q0-2.108-3.254-2.108a4.534,4.534,0,0,0-2.2.458,2.436,2.436,0,0,0-1.1,1.742A110.071,110.071,0,0,1,689.6,70.15a21.2,21.2,0,0,1-3.85,7.425,6.479,6.479,0,0,1-4.9,2.292,4.727,4.727,0,0,1-4.01-2.131,10.175,10.175,0,0,1-1.536-6.027,24.735,24.735,0,0,1,2.017-9.992,17.223,17.223,0,0,1,6.1-7.448,16.984,16.984,0,0,1,9.9-2.819,24.388,24.388,0,0,1,3.575.252q1.695,0.252,4.079.8a2.424,2.424,0,0,0,.55.046,2.668,2.668,0,0,0,2.085-1.054,3.418,3.418,0,0,0,.894-2.246,1.7,1.7,0,0,0-1.283-1.833,24.734,24.734,0,0,0-4.377-.962,34.367,34.367,0,0,0-4.515-.321,26.069,26.069,0,0,0-13.979,3.6,23.368,23.368,0,0,0-8.8,9.533,28.345,28.345,0,0,0-2.979,12.9,15.557,15.557,0,0,0,1.466,6.99,10.49,10.49,0,0,0,9.717,6.073h0Zm29.746,0q3.481,0,4.9-3.942l-0.046.733a3.366,3.366,0,0,0,.756,2.452,3.151,3.151,0,0,0,2.315.756,3.056,3.056,0,0,0,2.314-.756,3.585,3.585,0,0,0,.711-2.5,53.309,53.309,0,0,1,.275-5.706q0.274-2.544.779-5.34a24.972,24.972,0,0,0,.458-3.667,2.016,2.016,0,0,0-.6-1.558,2.408,2.408,0,0,0-1.695-.55,9.385,9.385,0,0,0-1.925.183,3.314,3.314,0,0,0-.573-1.4,1.788,1.788,0,0,0-1.352-.39,10.184,10.184,0,0,0-5.982,1.994,14.473,14.473,0,0,0-4.514,5.271,14.9,14.9,0,0,0-1.7,6.944,8.477,8.477,0,0,0,1.627,5.408,5.147,5.147,0,0,0,4.24,2.063h0Zm1.787-4.629a1.655,1.655,0,0,1-1.4-.71,3.473,3.473,0,0,1-.527-2.085,12.416,12.416,0,0,1,.963-4.858,9.843,9.843,0,0,1,2.566-3.69,5.413,5.413,0,0,1,3.484-1.444L715.5,72.442a21.135,21.135,0,0,1-1.879,6.371q-1.056,1.788-2.338,1.787h0Z" transform="translate(-668.562 -46.125)"/>
</svg>
