<svg xmlns="http://www.w3.org/2000/svg" width="56.844" height="32.156" viewBox="0 0 56.844 32.156">
  <defs>
    <style>
      .cls-1 {
        fill: #2b4f5f;
        fill-rule: evenodd;
      }
    </style>
  </defs>
  <path id="Poppins" class="cls-1" d="M690.979,298h4.4l-11.5-31.762h-4.813L667.512,298h4.4l2.567-7.1h13.933Zm-15.308-10.5,5.775-16.133,5.775,16.133h-11.55Zm23.191-2.154a14.411,14.411,0,0,0,1.559,6.783,11.56,11.56,0,0,0,4.262,4.63,11.384,11.384,0,0,0,6.05,1.649,11.043,11.043,0,0,0,5.706-1.443,9.827,9.827,0,0,0,3.69-3.644V298h4.217V272.883h-4.217v4.584a9.474,9.474,0,0,0-3.621-3.575,11.148,11.148,0,0,0-5.729-1.421,11.757,11.757,0,0,0-6.073,1.6,11.306,11.306,0,0,0-4.285,4.515,14.1,14.1,0,0,0-1.559,6.76h0Zm21.267,0.046a10.344,10.344,0,0,1-1.146,4.973,8.05,8.05,0,0,1-3.094,3.254,8.425,8.425,0,0,1-4.285,1.123,8.306,8.306,0,0,1-4.263-1.123,8.1,8.1,0,0,1-3.07-3.254,10.447,10.447,0,0,1-1.146-5.019,10.213,10.213,0,0,1,1.146-4.95,7.975,7.975,0,0,1,3.07-3.208,8.773,8.773,0,0,1,8.548.023,8.1,8.1,0,0,1,3.094,3.231,10.213,10.213,0,0,1,1.146,4.95h0Z" transform="translate(-667.5 -266.25)"/>
</svg>
