<svg xmlns="http://www.w3.org/2000/svg" width="49.187" height="32.688" viewBox="0 0 49.187 32.688">
  <defs>
    <style>
      .cls-1 {
        fill: #2b4f5f;
        fill-rule: evenodd;
      }
    </style>
  </defs>
  <path id="Redressed" class="cls-1" d="M696.481,506.285a4.873,4.873,0,0,1-1.141,1.052,2.591,2.591,0,0,1-1.477.47,1.559,1.559,0,0,1-.862-0.224,1.8,1.8,0,0,1-.571-0.593,2.5,2.5,0,0,1-.313-0.817,4.521,4.521,0,0,1-.09-0.895v-23.79l-4.632,1.7q0,1.12-.1,2.764t-0.313,3.57q-0.213,1.924-.56,4.017t-0.861,4.106a36.665,36.665,0,0,1-1.2,3.827,17.009,17.009,0,0,1-1.555,3.178,8.158,8.158,0,0,1-1.947,2.171,3.9,3.9,0,0,1-2.395.806,4.394,4.394,0,0,1-1.947-.414,4.851,4.851,0,0,1-1.488-1.119,6.479,6.479,0,0,1-1.063-1.612,11.575,11.575,0,0,1-.694-1.9,13.31,13.31,0,0,1-.38-1.992,16.665,16.665,0,0,1-.112-1.868,17.573,17.573,0,0,1,.615-4.543,22.723,22.723,0,0,1,1.724-4.476,23.16,23.16,0,0,1,2.674-4.1,21.17,21.17,0,0,1,3.458-3.39,17.769,17.769,0,0,1,4.062-2.372,13.276,13.276,0,0,1,4.52-1.019v-1.007h-0.268a16.434,16.434,0,0,0-5.405.828,21.691,21.691,0,0,0-5.091,2.44,25.234,25.234,0,0,0-4.465,3.692,25.607,25.607,0,0,0-3.536,4.61,24.29,24.29,0,0,0-2.339,5.181,17.812,17.812,0,0,0-.85,5.383,13.79,13.79,0,0,0,.615,4.2,9.773,9.773,0,0,0,1.791,3.345,8.394,8.394,0,0,0,2.853,2.216,8.686,8.686,0,0,0,3.8.806,6.862,6.862,0,0,0,3.11-.683A8.38,8.38,0,0,0,682.483,508a12.287,12.287,0,0,0,1.846-2.652,24.832,24.832,0,0,0,1.365-3.122,32.839,32.839,0,0,0,.985-3.267q0.4-1.646.716-3.077v8.66a7.41,7.41,0,0,0,.313,2.171,5.379,5.379,0,0,0,.951,1.824,4.727,4.727,0,0,0,1.567,1.265,4.777,4.777,0,0,0,2.182.47,4.039,4.039,0,0,0,1.477-.28,6.21,6.21,0,0,0,2.5-1.8,6.872,6.872,0,0,0,.839-1.253Zm19.985,0.358a4.1,4.1,0,0,1-.727.839,1.482,1.482,0,0,1-1.019.414,0.752,0.752,0,0,1-.693-0.369,1.537,1.537,0,0,1-.224-0.817v-9.086l-4.073,1.432V500.6q0,0.625-.056,1.421a15.078,15.078,0,0,1-.2,1.6,9.73,9.73,0,0,1-.425,1.578,5.645,5.645,0,0,1-.705,1.365,3.515,3.515,0,0,1-1.029.962,2.7,2.7,0,0,1-1.433.369,2.452,2.452,0,0,1-1.745-.649,4.9,4.9,0,0,1-1.119-1.589,7.751,7.751,0,0,1-.593-2,12.363,12.363,0,0,1-.168-1.913,7.952,7.952,0,0,1,.336-2.148,9.019,9.019,0,0,1,.973-2.238,6.545,6.545,0,0,1,1.544-1.768,3.246,3.246,0,0,1,2.07-.717,2.751,2.751,0,0,1,.985.179,4.1,4.1,0,0,1,.884.47,4.454,4.454,0,0,1,.761.683,6.373,6.373,0,0,1,.615.817l3.335-1.41a4.421,4.421,0,0,0-1.041-1.365,5.632,5.632,0,0,0-1.41-.907,7.042,7.042,0,0,0-1.622-.5,9.412,9.412,0,0,0-1.7-.157,7.891,7.891,0,0,0-3.86.951,10.045,10.045,0,0,0-2.977,2.473,11.443,11.443,0,0,0-1.925,3.458,11.612,11.612,0,0,0-.682,3.883,9.418,9.418,0,0,0,.38,2.708,6.476,6.476,0,0,0,1.142,2.226,5.535,5.535,0,0,0,1.88,1.511,5.674,5.674,0,0,0,2.573.56,3.941,3.941,0,0,0,1.746-.381,5.615,5.615,0,0,0,1.421-.985,7.724,7.724,0,0,0,1.141-1.365q0.5-.76.907-1.522v0.4a4.154,4.154,0,0,0,.772,2.652,3.051,3.051,0,0,0,2.54.974,3.6,3.6,0,0,0,1.287-.235,4.525,4.525,0,0,0,1.141-.638,5.176,5.176,0,0,0,.929-0.918,5.557,5.557,0,0,0,.671-1.1Z" transform="translate(-667.875 -477.812)"/>
</svg>
