<svg xmlns="http://www.w3.org/2000/svg" width="55.407" height="32.75" viewBox="0 0 55.407 32.75">
  <defs>
    <style>
      .cls-1 {
        fill: #2b4f5f;
        fill-rule: evenodd;
      }
    </style>
  </defs>
  <path id="Trirong" class="cls-1" d="M695.242,721.579l-11.23-30.846h-2.887l-11.229,30.8q-0.688.093-1.742,0.344a18.507,18.507,0,0,0-1.833.527V723h9.808v-0.5a16.862,16.862,0,0,0-3.8-.871l2.521-6.967H688.6l2.475,6.967a15.515,15.515,0,0,0-3.713.825V723h11.459v-0.55a20.419,20.419,0,0,0-3.575-.871h0ZM675.4,713.054l6.371-17.737,6.279,17.737H675.4Zm30.8,10.4a11.3,11.3,0,0,0,4.194-.848,11.173,11.173,0,0,0,4.01-2.864v3.346l7.333-.734v-0.366q-1.558-.412-3.162-0.734V706.225a5.6,5.6,0,0,0-2.338-4.7,10.427,10.427,0,0,0-6.416-1.764,19.708,19.708,0,0,0-4.744.572,18.448,18.448,0,0,0-4.148,1.536l0.321,1.421a18.333,18.333,0,0,1,3.506-1.352,13.808,13.808,0,0,1,3.69-.527,6.922,6.922,0,0,1,4.4,1.237,4.62,4.62,0,0,1,1.558,3.85v3.667h-6.783a11.887,11.887,0,0,0-6.417,1.581,5.575,5.575,0,0,0-2.521,5.11,6.192,6.192,0,0,0,1.925,4.905,8.213,8.213,0,0,0,5.592,1.695h0Zm1.466-1.695a5.056,5.056,0,0,1-3.552-1.238,4.787,4.787,0,0,1-1.352-3.712,4.683,4.683,0,0,1,1.467-3.69,6.439,6.439,0,0,1,4.4-1.306H714.4v6.05a8.4,8.4,0,0,1-2.91,2.727,7.421,7.421,0,0,1-3.828,1.169h0Z" transform="translate(-666.312 -690.719)"/>
</svg>
