<svg xmlns="http://www.w3.org/2000/svg" width="51.031" height="30.25" viewBox="0 0 51.031 30.25">
  <defs>
    <style>
      .cls-1 {
        fill: #2b4f5f;
        fill-rule: evenodd;
      }
    </style>
  </defs>
  <path id="ZillaSlab" class="cls-1" d="M696.021,932.067H693l-10.679-26.859h-8.48v2.934H678.6l-9.762,23.925h-2.8V935h10.5v-2.933h-4.309l2.292-5.729h12.742l2.154,5.729h-3.988V935h10.588v-2.933Zm-20.488-8.342,5.363-13.658h0.275l5.133,13.658H675.533Zm23.146-2.842,2.658,0.321,0.779-3.529a8.913,8.913,0,0,1,3.942-.825q2.749,0,3.69,1.375a6.218,6.218,0,0,1,.939,3.575v1.833q-0.825-.091-1.764-0.137t-1.857-.046a17.352,17.352,0,0,0-6.485,1.215q-3.048,1.215-3.048,5.064,0,3.255,2.086,4.492a8,8,0,0,0,4.1,1.237,7.013,7.013,0,0,0,4.239-1.283,9.664,9.664,0,0,0,2.727-2.933v0.091q0.092,4.125,3.713,4.125a5.39,5.39,0,0,0,2.658-.687l-0.046-2.108a3.255,3.255,0,0,1-1.375.275q-1.741,0-1.741-2.2v-9.717q0-6.83-7.288-6.829a15.292,15.292,0,0,0-3.8.458,11.219,11.219,0,0,0-3.392,1.513Zm9.969,10.45a6.28,6.28,0,0,1-3.965,1.467,4.968,4.968,0,0,1-2.567-.733,2.876,2.876,0,0,1-1.237-2.7,2.952,2.952,0,0,1,1.856-3.094,11.519,11.519,0,0,1,4.148-.711q1.008,0,1.971.092t1.833,0.138v1.558A5.334,5.334,0,0,1,708.648,931.333Z" transform="translate(-666.031 -905.219)"/>
</svg>
